<?xml version="1.0" encoding="UTF-8"?>
<!DOCTYPE svg PUBLIC "-//W3C//DTD SVG 1.1//EN" "http://www.w3.org/Graphics/SVG/1.1/DTD/svg11.dtd">
<svg xmlns="http://www.w3.org/2000/svg" version="1.1" width="1964px" height="470px" style="shape-rendering:geometricPrecision; text-rendering:geometricPrecision; image-rendering:optimizeQuality; fill-rule:evenodd; clip-rule:evenodd" xmlns:xlink="http://www.w3.org/1999/xlink">
<g><path style="opacity:0.979" fill="#fefae0" d="M 231.5,-0.5 C 233.167,-0.5 234.833,-0.5 236.5,-0.5C 252.741,7.62073 269.075,15.7874 285.5,24C 290.756,28.9244 290.756,33.9244 285.5,39C 271.377,46.396 257.043,53.2294 242.5,59.5C 242.17,66.5316 242.503,73.5316 243.5,80.5C 253.126,84.764 262.792,88.9307 272.5,93C 324.25,93.0088 375.916,93.6754 427.5,95C 428.893,96.1711 429.727,97.6711 430,99.5C 430.5,118.164 430.667,136.83 430.5,155.5C 434.582,155.344 438.582,155.844 442.5,157C 443.701,157.903 444.535,159.069 445,160.5C 445.5,247.499 445.667,334.499 445.5,421.5C 451.842,421.334 458.175,421.5 464.5,422C 465.931,422.465 467.097,423.299 468,424.5C 469.609,437.43 469.942,450.43 469,463.5C 467.979,466.35 466.146,468.35 463.5,469.5C 310.833,469.5 158.167,469.5 5.5,469.5C 2.83333,468.167 0.833333,466.167 -0.5,463.5C -0.5,451.5 -0.5,439.5 -0.5,427.5C 0.220313,424.94 1.88698,423.107 4.5,422C 10.8246,421.5 17.1579,421.334 23.5,421.5C 23.3333,334.499 23.5,247.499 24,160.5C 24.4652,159.069 25.2986,157.903 26.5,157C 30.3951,155.734 34.3951,155.234 38.5,155.5C 38.3334,136.83 38.5001,118.164 39,99.5C 39.3981,96.7683 40.8981,94.935 43.5,94C 94.5,93.6667 145.5,93.3333 196.5,93C 206.208,88.9307 215.874,84.764 225.5,80.5C 226.333,55.1732 226.833,29.8399 227,4.5C 228.025,2.31305 229.525,0.646381 231.5,-0.5 Z M 242.5,21.5 C 248.964,24.5658 255.298,27.8991 261.5,31.5C 255.413,34.9605 249.246,38.2938 243,41.5C 242.5,34.8417 242.334,28.175 242.5,21.5 Z M 232.5,95.5 C 266.915,109.141 301.081,123.475 335,138.5C 335.5,232.833 335.667,327.166 335.5,421.5C 330.5,421.5 325.5,421.5 320.5,421.5C 320.987,385.747 320.487,350.08 319,314.5C 318.25,313.874 317.416,313.374 316.5,313C 261.833,312.333 207.167,312.333 152.5,313C 151.584,313.374 150.75,313.874 150,314.5C 148.513,350.08 148.013,385.747 148.5,421.5C 143.5,421.5 138.5,421.5 133.5,421.5C 133.333,327.166 133.5,232.833 134,138.5C 166.966,124.262 199.8,109.929 232.5,95.5 Z M 55.5,109.5 C 89.5016,109.333 123.502,109.5 157.5,110C 147.167,114.333 136.833,118.667 126.5,123C 123.241,124.211 120.408,126.044 118,128.5C 116.557,137.392 116.057,146.392 116.5,155.5C 96.1667,155.5 75.8333,155.5 55.5,155.5C 55.5,140.167 55.5,124.833 55.5,109.5 Z M 311.5,110.5 C 345.329,109.502 379.329,109.168 413.5,109.5C 413.5,124.833 413.5,140.167 413.5,155.5C 393.167,155.5 372.833,155.5 352.5,155.5C 352.943,146.392 352.443,137.392 351,128.5C 348.592,126.044 345.759,124.211 342.5,123C 332.251,118.53 321.917,114.364 311.5,110.5 Z M 203.5,141.5 C 224.167,141.5 244.833,141.5 265.5,141.5C 265.5,146.167 265.5,150.833 265.5,155.5C 244.833,155.5 224.167,155.5 203.5,155.5C 203.5,150.833 203.5,146.167 203.5,141.5 Z M 39.5,172.5 C 65.1667,172.5 90.8333,172.5 116.5,172.5C 116.5,255.5 116.5,338.5 116.5,421.5C 90.8333,421.5 65.1667,421.5 39.5,421.5C 39.5,338.5 39.5,255.5 39.5,172.5 Z M 352.5,172.5 C 378.167,172.5 403.833,172.5 429.5,172.5C 429.5,255.5 429.5,338.5 429.5,421.5C 403.833,421.5 378.167,421.5 352.5,421.5C 352.5,338.5 352.5,255.5 352.5,172.5 Z M 164.5,203.5 C 169.5,203.5 174.5,203.5 179.5,203.5C 179.5,208.5 179.5,213.5 179.5,218.5C 174.5,218.5 169.5,218.5 164.5,218.5C 164.5,213.5 164.5,208.5 164.5,203.5 Z M 227.5,203.5 C 232.167,203.5 236.833,203.5 241.5,203.5C 241.5,208.5 241.5,213.5 241.5,218.5C 236.833,218.5 232.167,218.5 227.5,218.5C 227.5,213.5 227.5,208.5 227.5,203.5 Z M 289.5,203.5 C 294.5,203.5 299.5,203.5 304.5,203.5C 304.5,208.5 304.5,213.5 304.5,218.5C 299.5,218.5 294.5,218.5 289.5,218.5C 289.5,213.5 289.5,208.5 289.5,203.5 Z M 70.5,219.5 C 75.5,219.5 80.5,219.5 85.5,219.5C 85.5,224.5 85.5,229.5 85.5,234.5C 80.5,234.5 75.5,234.5 70.5,234.5C 70.5,229.5 70.5,224.5 70.5,219.5 Z M 383.5,219.5 C 388.5,219.5 393.5,219.5 398.5,219.5C 398.5,224.5 398.5,229.5 398.5,234.5C 393.5,234.5 388.5,234.5 383.5,234.5C 383.5,229.5 383.5,224.5 383.5,219.5 Z M 164.5,266.5 C 169.5,266.5 174.5,266.5 179.5,266.5C 179.5,271.167 179.5,275.833 179.5,280.5C 174.5,280.5 169.5,280.5 164.5,280.5C 164.5,275.833 164.5,271.167 164.5,266.5 Z M 227.5,266.5 C 232.167,266.5 236.833,266.5 241.5,266.5C 241.5,271.167 241.5,275.833 241.5,280.5C 236.833,280.5 232.167,280.5 227.5,280.5C 227.5,275.833 227.5,271.167 227.5,266.5 Z M 289.5,266.5 C 294.5,266.5 299.5,266.5 304.5,266.5C 304.5,271.167 304.5,275.833 304.5,280.5C 299.5,280.5 294.5,280.5 289.5,280.5C 289.5,275.833 289.5,271.167 289.5,266.5 Z M 70.5,289.5 C 75.5,289.5 80.5,289.5 85.5,289.5C 85.5,294.5 85.5,299.5 85.5,304.5C 80.5,304.5 75.5,304.5 70.5,304.5C 70.5,299.5 70.5,294.5 70.5,289.5 Z M 383.5,289.5 C 388.5,289.5 393.5,289.5 398.5,289.5C 398.5,294.5 398.5,299.5 398.5,304.5C 393.5,304.5 388.5,304.5 383.5,304.5C 383.5,299.5 383.5,294.5 383.5,289.5 Z M 164.5,328.5 C 211.167,328.5 257.833,328.5 304.5,328.5C 304.5,359.5 304.5,390.5 304.5,421.5C 257.833,421.5 211.167,421.5 164.5,421.5C 164.5,390.5 164.5,359.5 164.5,328.5 Z M 70.5,359.5 C 75.5,359.5 80.5,359.5 85.5,359.5C 85.5,364.5 85.5,369.5 85.5,374.5C 80.5,374.5 75.5,374.5 70.5,374.5C 70.5,369.5 70.5,364.5 70.5,359.5 Z M 383.5,359.5 C 388.5,359.5 393.5,359.5 398.5,359.5C 398.5,364.5 398.5,369.5 398.5,374.5C 393.5,374.5 388.5,374.5 383.5,374.5C 383.5,369.5 383.5,364.5 383.5,359.5 Z M 16.5,438.5 C 161.833,438.5 307.167,438.5 452.5,438.5C 452.5,443.167 452.5,447.833 452.5,452.5C 307.167,452.5 161.833,452.5 16.5,452.5C 16.5,447.833 16.5,443.167 16.5,438.5 Z"/></g>
<g><path style="opacity:0.877" fill="#fefadf" d="M 69.5,124.5 C 80.5,124.5 91.5,124.5 102.5,124.5C 102.5,130.167 102.5,135.833 102.5,141.5C 91.5,141.5 80.5,141.5 69.5,141.5C 69.5,135.833 69.5,130.167 69.5,124.5 Z"/></g>
<g><path style="opacity:0.991" fill="#fef9e0" d="M 192.5,124.5 C 220.502,124.333 248.502,124.5 276.5,125C 278.667,125.833 280.167,127.333 281,129.5C 281.667,142.5 281.667,155.5 281,168.5C 279.786,170.049 278.286,171.215 276.5,172C 248.5,172.667 220.5,172.667 192.5,172C 190.714,171.215 189.214,170.049 188,168.5C 187.333,155.167 187.333,141.833 188,128.5C 189.397,126.93 190.897,125.596 192.5,124.5 Z M 203.5,141.5 C 203.5,146.167 203.5,150.833 203.5,155.5C 224.167,155.5 244.833,155.5 265.5,155.5C 265.5,150.833 265.5,146.167 265.5,141.5C 244.833,141.5 224.167,141.5 203.5,141.5 Z"/></g>
<g><path style="opacity:0.877" fill="#fefadf" d="M 366.5,124.5 C 377.5,124.5 388.5,124.5 399.5,124.5C 399.5,130.167 399.5,135.833 399.5,141.5C 388.5,141.5 377.5,141.5 366.5,141.5C 366.5,135.833 366.5,130.167 366.5,124.5 Z"/></g>
<g><path style="opacity:0.982" fill="#fefae0" d="M 1963.5,170.5 C 1963.5,229.833 1963.5,289.167 1963.5,348.5C 1956.17,348.5 1948.83,348.5 1941.5,348.5C 1941.33,290.499 1941.5,232.499 1942,174.5C 1949.05,172.686 1956.22,171.352 1963.5,170.5 Z"/></g>
<g><path style="opacity:0.982" fill="#fefae0" d="M 1252.5,174.5 C 1259.83,174.5 1267.17,174.5 1274.5,174.5C 1274.67,217.168 1274.5,259.835 1274,302.5C 1274.77,336.357 1258.44,355.024 1225,358.5C 1223.83,358.167 1222.67,357.833 1221.5,357.5C 1219.43,352.95 1217.76,348.283 1216.5,343.5C 1240.39,341.44 1252.23,328.44 1252,304.5C 1252.5,261.168 1252.67,217.835 1252.5,174.5 Z"/></g>
<g><path style="opacity:0.968" fill="#fef9e0" d="M 550.5,175.5 C 576.864,175.075 603.197,175.575 629.5,177C 669.129,184.756 680.963,207.256 665,244.5C 657.085,254.047 646.918,259.881 634.5,262C 654.721,264.56 666.888,275.727 671,295.5C 671.5,313.497 671.667,331.497 671.5,349.5C 664.167,349.5 656.833,349.5 649.5,349.5C 649.667,332.163 649.5,314.83 649,297.5C 647.21,281.043 638.043,271.877 621.5,270C 605.525,268.748 589.525,268.248 573.5,268.5C 573.5,295.5 573.5,322.5 573.5,349.5C 565.833,349.5 558.167,349.5 550.5,349.5C 550.5,291.5 550.5,233.5 550.5,175.5 Z M 573.5,191.5 C 586.504,191.333 599.504,191.5 612.5,192C 622.596,192.189 631.929,194.855 640.5,200C 648.467,209.182 650.634,219.682 647,231.5C 640.969,244.951 630.469,252.118 615.5,253C 601.504,253.5 587.504,253.667 573.5,253.5C 573.5,232.833 573.5,212.167 573.5,191.5 Z"/></g>
<g><path style="opacity:0.983" fill="#fefae0" d="M 1103.5,174.5 C 1104.5,174.5 1105.5,174.5 1106.5,174.5C 1106.5,189.5 1106.5,204.5 1106.5,219.5C 1118.83,219.5 1131.17,219.5 1143.5,219.5C 1143.5,223.5 1143.5,227.5 1143.5,231.5C 1131.17,231.5 1118.83,231.5 1106.5,231.5C 1106.04,263.869 1106.54,296.202 1108,328.5C 1109.83,332.997 1113.16,334.997 1118,334.5C 1126.37,333.069 1134.21,330.069 1141.5,325.5C 1144.54,329.733 1147.2,334.233 1149.5,339C 1136.51,348.915 1121.84,352.581 1105.5,350C 1096.77,347.605 1090.94,342.105 1088,333.5C 1086.15,325.613 1085.15,317.613 1085,309.5C 1084.5,283.502 1084.33,257.502 1084.5,231.5C 1077.83,231.5 1071.17,231.5 1064.5,231.5C 1064.5,227.5 1064.5,223.5 1064.5,219.5C 1071.5,219.5 1078.5,219.5 1085.5,219.5C 1086.05,206.153 1086.88,192.819 1088,179.5C 1093.23,177.74 1098.4,176.073 1103.5,174.5 Z"/></g>
<g><path style="opacity:0.981" fill="#fdfae0" d="M 152.5,187.5 C 165.504,187.333 178.504,187.5 191.5,188C 192.416,188.374 193.25,188.874 194,189.5C 195.132,196.566 195.632,203.733 195.5,211C 201,232.167 193.167,240 172,234.5C 165.5,234.333 159,234.167 152.5,234C 151.584,233.626 150.75,233.126 150,232.5C 148.37,218.928 148.037,205.261 149,191.5C 149.69,189.65 150.856,188.316 152.5,187.5 Z M 164.5,203.5 C 164.5,208.5 164.5,213.5 164.5,218.5C 169.5,218.5 174.5,218.5 179.5,218.5C 179.5,213.5 179.5,208.5 179.5,203.5C 174.5,203.5 169.5,203.5 164.5,203.5 Z"/></g>
<g><path style="opacity:0.956" fill="#fefadf" d="M 214.5,187.5 C 227.837,187.333 241.171,187.5 254.5,188C 255.333,188.833 256.167,189.667 257,190.5C 258.628,203.405 258.961,216.405 258,229.5C 257.215,231.286 256.049,232.786 254.5,234C 241.167,234.667 227.833,234.667 214.5,234C 213.667,233.167 212.833,232.333 212,231.5C 210.372,218.595 210.039,205.595 211,192.5C 211.997,190.677 213.164,189.01 214.5,187.5 Z M 227.5,203.5 C 227.5,208.5 227.5,213.5 227.5,218.5C 232.167,218.5 236.833,218.5 241.5,218.5C 241.5,213.5 241.5,208.5 241.5,203.5C 236.833,203.5 232.167,203.5 227.5,203.5 Z"/></g>
<g><path style="opacity:0.984" fill="#fdfae0" d="M 277.5,187.5 C 290.504,187.333 303.504,187.5 316.5,188C 317.416,188.374 318.25,188.874 319,189.5C 320.132,196.566 320.632,203.733 320.5,211C 326,232.167 318.167,240 297,234.5C 290.5,234.333 284,234.167 277.5,234C 276.584,233.626 275.75,233.126 275,232.5C 273.37,218.928 273.037,205.261 274,191.5C 274.69,189.65 275.856,188.316 277.5,187.5 Z M 289.5,203.5 C 289.5,208.5 289.5,213.5 289.5,218.5C 294.5,218.5 299.5,218.5 304.5,218.5C 304.5,213.5 304.5,208.5 304.5,203.5C 299.5,203.5 294.5,203.5 289.5,203.5 Z"/></g>
<g><path style="opacity:0.964" fill="#fefae0" d="M 60.5,202.5 C 72.5046,202.333 84.5046,202.5 96.5,203C 98.286,203.785 99.786,204.951 101,206.5C 102.607,219.096 102.941,231.763 102,244.5C 101.293,246.081 100.46,247.581 99.5,249C 86.2615,250.629 72.9281,250.962 59.5,250C 58.0692,249.535 56.9025,248.701 56,247.5C 54.371,234.261 54.0377,220.928 55,207.5C 56.1065,204.887 57.9399,203.22 60.5,202.5 Z M 70.5,219.5 C 70.5,224.5 70.5,229.5 70.5,234.5C 75.5,234.5 80.5,234.5 85.5,234.5C 85.5,229.5 85.5,224.5 85.5,219.5C 80.5,219.5 75.5,219.5 70.5,219.5 Z"/></g>
<g><path style="opacity:0.964" fill="#fefae0" d="M 372.5,202.5 C 384.505,202.333 396.505,202.5 408.5,203C 410.329,203.273 411.829,204.107 413,205.5C 414.629,218.739 414.962,232.072 414,245.5C 413.535,246.931 412.701,248.097 411.5,249C 404.601,250.131 397.601,250.631 390.5,250.5C 384.167,250.333 377.833,250.167 371.5,250C 369.185,248.891 367.685,247.057 367,244.5C 366.333,232.5 366.333,220.5 367,208.5C 368.36,205.977 370.193,203.977 372.5,202.5 Z M 383.5,219.5 C 383.5,224.5 383.5,229.5 383.5,234.5C 388.5,234.5 393.5,234.5 398.5,234.5C 398.5,229.5 398.5,224.5 398.5,219.5C 393.5,219.5 388.5,219.5 383.5,219.5 Z"/></g>
<g><path style="opacity:0.977" fill="#fefae0" d="M 747.5,216.5 C 784.43,217.432 802.764,236.432 802.5,273.5C 802.291,277.851 801.957,282.185 801.5,286.5C 773.5,286.5 745.5,286.5 717.5,286.5C 717.751,326.609 737.084,341.442 775.5,331C 780.175,328.664 784.508,325.831 788.5,322.5C 791.657,326.806 794.324,331.472 796.5,336.5C 793.943,339.215 790.943,341.382 787.5,343C 768.968,351.298 749.968,352.631 730.5,347C 710.345,337.232 699.178,321.066 697,298.5C 693.529,275.059 698.529,253.725 712,234.5C 721.418,223.541 733.252,217.541 747.5,216.5 Z M 745.5,233.5 C 763.832,230.574 775.665,237.907 781,255.5C 782.304,261.423 782.804,267.423 782.5,273.5C 761.167,273.5 739.833,273.5 718.5,273.5C 718.636,260.4 723.302,249.233 732.5,240C 736.657,237.255 740.99,235.088 745.5,233.5 Z"/></g>
<g><path style="opacity:0.976" fill="#fefae0" d="M 874.5,216.5 C 885.392,216.535 896.059,218.035 906.5,221C 918.536,226.221 925.37,235.387 927,248.5C 928.04,256.131 928.706,263.798 929,271.5C 929.5,297.165 929.667,322.831 929.5,348.5C 923.833,348.5 918.167,348.5 912.5,348.5C 912.04,342.74 911.04,337.073 909.5,331.5C 893.075,349.096 873.075,354.929 849.5,349C 830.948,343.259 821.948,330.592 822.5,311C 823.209,288.617 834.542,274.951 856.5,270C 873.665,268.378 890.498,269.878 907,274.5C 907.475,266.145 907.142,257.811 906,249.5C 904.167,241 899,235.833 890.5,234C 871.228,231.052 853.728,235.218 838,246.5C 835.412,242.326 833.079,237.993 831,233.5C 830.316,232.216 830.483,231.049 831.5,230C 844.931,222.131 859.264,217.631 874.5,216.5 Z M 874.5,283.5 C 885.473,283.481 896.307,284.481 907,286.5C 907.667,297.167 907.667,307.833 907,318.5C 896.93,328.618 884.763,333.952 870.5,334.5C 852.888,335.72 844.222,327.553 844.5,310C 843.654,300.359 847.32,293.026 855.5,288C 861.762,285.652 868.096,284.152 874.5,283.5 Z"/></g>
<g><path style="opacity:0.968" fill="#fefae0" d="M 1007.5,216.5 C 1022.89,216.43 1037.22,220.263 1050.5,228C 1051.99,228.745 1052.99,229.912 1053.5,231.5C 1051.91,236.621 1049.58,241.287 1046.5,245.5C 1031.48,233.08 1014.81,230.247 996.5,237C 987.757,241.302 981.923,248.136 979,257.5C 974.162,276.672 974.829,295.672 981,314.5C 989.141,331.678 1002.64,338.178 1021.5,334C 1031.37,331.984 1039.87,327.484 1047,320.5C 1049.26,324.683 1051.26,329.016 1053,333.5C 1053.78,334.944 1053.61,336.277 1052.5,337.5C 1031.61,351.47 1009.28,354.303 985.5,346C 974.276,340.443 966.11,331.943 961,320.5C 953.543,299.845 952.543,278.845 958,257.5C 966.006,233.309 982.506,219.642 1007.5,216.5 Z"/></g>
<g><path style="opacity:0.976" fill="#fefae0" d="M 1855.5,216.5 C 1866.39,216.535 1877.06,218.035 1887.5,221C 1899.54,226.221 1906.37,235.387 1908,248.5C 1909.04,256.131 1909.71,263.798 1910,271.5C 1910.5,297.165 1910.67,322.831 1910.5,348.5C 1904.83,348.5 1899.17,348.5 1893.5,348.5C 1893.04,342.74 1892.04,337.073 1890.5,331.5C 1874.07,349.096 1854.07,354.929 1830.5,349C 1811.95,343.259 1802.95,330.592 1803.5,311C 1804.21,288.617 1815.54,274.951 1837.5,270C 1854.67,268.378 1871.5,269.878 1888,274.5C 1888.47,266.145 1888.14,257.811 1887,249.5C 1885.17,241 1880,235.833 1871.5,234C 1852.23,231.052 1834.73,235.218 1819,246.5C 1816.41,242.326 1814.08,237.993 1812,233.5C 1811.32,232.216 1811.48,231.049 1812.5,230C 1825.93,222.131 1840.26,217.631 1855.5,216.5 Z M 1855.5,283.5 C 1866.47,283.481 1877.31,284.481 1888,286.5C 1888.67,297.167 1888.67,307.833 1888,318.5C 1877.93,328.618 1865.76,333.952 1851.5,334.5C 1833.89,335.72 1825.22,327.553 1825.5,310C 1824.65,300.359 1828.32,293.026 1836.5,288C 1842.76,285.652 1849.1,284.152 1855.5,283.5 Z"/></g>
<g><path style="opacity:0.988" fill="#fefae0" d="M 1627.5,217.5 C 1633.89,217.207 1640.23,217.54 1646.5,218.5C 1647.66,224.472 1647.83,230.472 1647,236.5C 1634.77,234.014 1623.61,236.514 1613.5,244C 1610,246.833 1606.5,249.667 1603,252.5C 1602.5,284.498 1602.33,316.498 1602.5,348.5C 1595.17,348.5 1587.83,348.5 1580.5,348.5C 1580.5,305.5 1580.5,262.5 1580.5,219.5C 1586.17,219.5 1591.83,219.5 1597.5,219.5C 1598.53,226.182 1599.69,232.849 1601,239.5C 1607.9,229.755 1616.74,222.421 1627.5,217.5 Z"/></g>
<g><path style="opacity:0.988" fill="#fefae0" d="M 1725.5,217.5 C 1755.03,213.145 1772.2,225.478 1777,254.5C 1777.5,285.832 1777.67,317.165 1777.5,348.5C 1770.5,348.5 1763.5,348.5 1756.5,348.5C 1756.67,321.165 1756.5,293.831 1756,266.5C 1756.84,255.023 1753.34,245.189 1745.5,237C 1737.46,233.164 1729.13,232.497 1720.5,235C 1709.84,239.078 1700.01,244.578 1691,251.5C 1690.5,283.832 1690.33,316.165 1690.5,348.5C 1683.17,348.5 1675.83,348.5 1668.5,348.5C 1668.5,305.5 1668.5,262.5 1668.5,219.5C 1674.17,219.5 1679.83,219.5 1685.5,219.5C 1685.92,225.882 1686.76,232.215 1688,238.5C 1698.71,228.229 1711.21,221.229 1725.5,217.5 Z"/></g>
<g><path style="opacity:0.972" fill="#fefae0" d="M 1347.5,218.5 C 1364.72,215.982 1380.72,219.148 1395.5,228C 1407.15,237.787 1414.32,250.287 1417,265.5C 1421.18,287.906 1418.18,309.24 1408,329.5C 1400.76,340.711 1390.6,347.878 1377.5,351C 1356.68,356.027 1337.68,352.36 1320.5,340C 1309.9,328.633 1303.74,315.133 1302,299.5C 1299,278.177 1302.66,258.177 1313,239.5C 1321.81,228.014 1333.31,221.014 1347.5,218.5 Z M 1352.5,234.5 C 1379.52,233.344 1394.36,246.344 1397,273.5C 1399.78,292.102 1396.44,309.435 1387,325.5C 1376.57,336.19 1364.07,339.69 1349.5,336C 1339.16,332.993 1331.99,326.493 1328,316.5C 1321.06,296.958 1320.73,277.292 1327,257.5C 1331.64,245.351 1340.14,237.685 1352.5,234.5 Z"/></g>
<g><path style="opacity:0.962" fill="#fefae0" d="M 1443.5,219.5 C 1450.83,219.5 1458.17,219.5 1465.5,219.5C 1465.05,251.203 1465.55,282.869 1467,314.5C 1471.74,331.631 1482.91,338.131 1500.5,334C 1511.07,331.3 1520.23,326.133 1528,318.5C 1528.5,285.502 1528.67,252.502 1528.5,219.5C 1535.83,219.5 1543.17,219.5 1550.5,219.5C 1550.5,262.5 1550.5,305.5 1550.5,348.5C 1545.13,348.828 1539.79,348.495 1534.5,347.5C 1533.55,341.797 1532.38,336.131 1531,330.5C 1511.27,352.114 1488.1,356.614 1461.5,344C 1450.21,334.59 1444.38,322.424 1444,307.5C 1443.5,278.169 1443.33,248.835 1443.5,219.5 Z"/></g>
<g><path style="opacity:0.985" fill="#fefae0" d="M 153.5,249.5 C 165.838,249.333 178.171,249.5 190.5,250C 192.286,250.785 193.786,251.951 195,253.5C 195.667,266.833 195.667,280.167 195,293.5C 194.167,294.333 193.333,295.167 192.5,296C 179.595,297.628 166.595,297.961 153.5,297C 151.714,296.215 150.214,295.049 149,293.5C 148.333,280.167 148.333,266.833 149,253.5C 150.397,251.93 151.897,250.596 153.5,249.5 Z M 164.5,266.5 C 164.5,271.167 164.5,275.833 164.5,280.5C 169.5,280.5 174.5,280.5 179.5,280.5C 179.5,275.833 179.5,271.167 179.5,266.5C 174.5,266.5 169.5,266.5 164.5,266.5 Z"/></g>
<g><path style="opacity:0.963" fill="#fef9e0" d="M 216.5,249.5 C 228.505,249.333 240.505,249.5 252.5,250C 255.333,250.833 257.167,252.667 258,255.5C 258.667,267.833 258.667,280.167 258,292.5C 257.535,293.931 256.701,295.097 255.5,296C 242.261,297.629 228.928,297.962 215.5,297C 214.069,296.535 212.903,295.701 212,294.5C 210.372,281.595 210.039,268.595 211,255.5C 212.021,252.65 213.854,250.65 216.5,249.5 Z M 227.5,266.5 C 227.5,271.167 227.5,275.833 227.5,280.5C 232.167,280.5 236.833,280.5 241.5,280.5C 241.5,275.833 241.5,271.167 241.5,266.5C 236.833,266.5 232.167,266.5 227.5,266.5 Z"/></g>
<g><path style="opacity:0.989" fill="#fefae0" d="M 278.5,249.5 C 290.838,249.333 303.171,249.5 315.5,250C 317.286,250.785 318.786,251.951 320,253.5C 320.667,266.833 320.667,280.167 320,293.5C 319.167,294.333 318.333,295.167 317.5,296C 304.595,297.628 291.595,297.961 278.5,297C 276.714,296.215 275.214,295.049 274,293.5C 273.333,280.167 273.333,266.833 274,253.5C 275.397,251.93 276.897,250.596 278.5,249.5 Z M 289.5,266.5 C 289.5,271.167 289.5,275.833 289.5,280.5C 294.5,280.5 299.5,280.5 304.5,280.5C 304.5,275.833 304.5,271.167 304.5,266.5C 299.5,266.5 294.5,266.5 289.5,266.5 Z"/></g>
<g><path style="opacity:0.965" fill="#fefadf" d="M 58.5,273.5 C 71.5043,273.333 84.5043,273.5 97.5,274C 98.9308,274.465 100.097,275.299 101,276.5C 102.607,289.096 102.941,301.763 102,314.5C 101.727,316.329 100.893,317.829 99.5,319C 85.9278,320.63 72.2611,320.963 58.5,320C 57.3333,318.833 56.1667,317.667 55,316.5C 54.3333,303.5 54.3333,290.5 55,277.5C 56.3756,276.295 57.5423,274.962 58.5,273.5 Z M 70.5,289.5 C 70.5,294.5 70.5,299.5 70.5,304.5C 75.5,304.5 80.5,304.5 85.5,304.5C 85.5,299.5 85.5,294.5 85.5,289.5C 80.5,289.5 75.5,289.5 70.5,289.5 Z"/></g>
<g><path style="opacity:0.964" fill="#fefadf" d="M 371.5,273.5 C 384.504,273.333 397.504,273.5 410.5,274C 411.667,275.167 412.833,276.333 414,277.5C 414.667,290.5 414.667,303.5 414,316.5C 412.833,317.667 411.667,318.833 410.5,320C 397.5,320.667 384.5,320.667 371.5,320C 370.069,319.535 368.903,318.701 368,317.5C 366.393,304.904 366.059,292.237 367,279.5C 367.599,276.746 369.099,274.746 371.5,273.5 Z M 383.5,289.5 C 383.5,294.5 383.5,299.5 383.5,304.5C 388.5,304.5 393.5,304.5 398.5,304.5C 398.5,299.5 398.5,294.5 398.5,289.5C 393.5,289.5 388.5,289.5 383.5,289.5 Z"/></g>
<g><path style="opacity:0.965" fill="#fefadf" d="M 59.5,343.5 C 72.1711,343.333 84.8377,343.5 97.5,344C 99.8147,345.109 101.315,346.943 102,349.5C 102.667,361.167 102.667,372.833 102,384.5C 101.654,386.848 100.487,388.681 98.5,390C 85.9289,391.627 73.2623,391.96 60.5,391C 58.6711,390.727 57.1711,389.893 56,388.5C 54.371,375.261 54.0377,361.928 55,348.5C 56.025,346.313 57.525,344.646 59.5,343.5 Z M 70.5,359.5 C 70.5,364.5 70.5,369.5 70.5,374.5C 75.5,374.5 80.5,374.5 85.5,374.5C 85.5,369.5 85.5,364.5 85.5,359.5C 80.5,359.5 75.5,359.5 70.5,359.5 Z"/></g>
<g><path style="opacity:0.965" fill="#fefadf" d="M 371.5,343.5 C 384.171,343.333 396.838,343.5 409.5,344C 410.931,344.465 412.097,345.299 413,346.5C 414.131,353.399 414.631,360.399 414.5,367.5C 414.333,373.833 414.167,380.167 414,386.5C 412.891,388.815 411.057,390.315 408.5,391C 396.5,391.667 384.5,391.667 372.5,391C 370.714,390.215 369.214,389.049 368,387.5C 366.393,374.904 366.059,362.237 367,349.5C 367.804,346.854 369.304,344.854 371.5,343.5 Z M 383.5,359.5 C 383.5,364.5 383.5,369.5 383.5,374.5C 388.5,374.5 393.5,374.5 398.5,374.5C 398.5,369.5 398.5,364.5 398.5,359.5C 393.5,359.5 388.5,359.5 383.5,359.5 Z"/></g>
</svg>
